<?xml version="1.0" encoding="UTF-8" standalone="no"?>
<!DOCTYPE svg PUBLIC "-//W3C//DTD SVG 1.1//EN" "http://www.w3.org/Graphics/SVG/1.1/DTD/svg11.dtd">
<svg width="100%" height="100%" viewBox="0 0 401 574" version="1.1" xmlns="http://www.w3.org/2000/svg" xmlns:xlink="http://www.w3.org/1999/xlink" xml:space="preserve" xmlns:serif="http://www.serif.com/" style="fill-rule:evenodd;clip-rule:evenodd;stroke-linejoin:round;stroke-miterlimit:2;">
    <g transform="matrix(1,0,0,1,-149.565,-63.4697)">
        <g transform="matrix(1,0,0,1,-0.14786,49.7481)">
            <path d="M328.125,22.75C341.329,11.217 358.965,10.217 372.168,22.75C391.445,41.047 418.168,95.25 433.918,132.87C452.293,176.62 478.418,265.12 475.793,312.37C474.043,359.62 448.668,403.37 404.043,421.75C399.668,423.5 394.418,425.25 389.168,427L389.168,502.5C389.168,502.5 423.35,505.105 467.86,487.5C487.603,479.691 527.312,473.77 542.249,487.559C577.52,520.12 491.808,564.13 453.36,573.75C381.93,591.623 313.363,590.623 246.934,573.75C208.52,563.993 122.773,520.12 158.045,487.559C172.982,473.77 212.691,479.691 232.434,487.5C276.944,505.105 311.125,502.5 311.125,502.5L311.125,427C305.875,425.25 300.625,423.5 296.25,421.75C251.625,403.37 226.25,359.62 224.5,312.37C221.875,265.12 248,176.62 266.375,132.87C282.125,95.25 308.108,40.233 328.125,22.75Z" style="fill-rule:nonzero;"/>
        </g>
    </g>
</svg>
