<?xml version="1.0" encoding="UTF-8" standalone="no"?>
<!DOCTYPE svg PUBLIC "-//W3C//DTD SVG 1.1//EN" "http://www.w3.org/Graphics/SVG/1.1/DTD/svg11.dtd">
<svg width="100%" height="100%" viewBox="0 0 127 509" version="1.1" xmlns="http://www.w3.org/2000/svg" xmlns:xlink="http://www.w3.org/1999/xlink" xml:space="preserve" xmlns:serif="http://www.serif.com/" style="fill-rule:evenodd;clip-rule:evenodd;stroke-linejoin:round;stroke-miterlimit:2;">
    <g transform="matrix(1,0,0,1,-253.21,-17.0422)">
        <g transform="matrix(0.707107,0.707107,-0.707107,0.707107,283.698,-144.517)">
            <path d="M487.756,459.753L506.242,441.834C516.32,431.756 516.32,415.514 506.8,405.436L312.88,181.836C308.4,177.356 301.681,174.555 295.521,174.555C289.361,174.555 283.201,176.793 278.162,181.836L269.202,191.356L242.483,164.637L255.362,151.758C264.323,142.797 264.323,128.238 255.362,119.278L226.803,91.278C214.483,78.958 198.244,72.798 182.002,72.798C165.764,72.798 149.522,78.958 137.201,91.278C112.56,115.919 112.56,155.676 137.201,180.317L165.76,208.876C170.24,213.356 175.838,215.595 181.998,215.595C188.158,215.595 193.76,213.356 198.236,208.876L211.115,195.997L237.834,222.716L228.314,232.235C218.795,241.755 218.795,257.434 228.314,266.954L451.354,460.874C456.393,465.355 463.116,467.593 469.276,467.593C475.995,467.593 482.717,464.792 487.756,459.753ZM495.041,453.038L499.522,448.558L495.041,453.038Z" style="fill-rule:nonzero;"/>
        </g>
    </g>
</svg>
