<?xml version="1.0" encoding="UTF-8" standalone="no"?>
<!DOCTYPE svg PUBLIC "-//W3C//DTD SVG 1.1//EN" "http://www.w3.org/Graphics/SVG/1.1/DTD/svg11.dtd">
<svg width="100%" height="100%" viewBox="0 0 120 226" version="1.1" xmlns="http://www.w3.org/2000/svg" xmlns:xlink="http://www.w3.org/1999/xlink" xml:space="preserve" xmlns:serif="http://www.serif.com/" style="fill-rule:evenodd;clip-rule:evenodd;stroke-linejoin:round;stroke-miterlimit:2;">
    <g transform="matrix(1,0,0,1,-447.272,-167.251)">
        <path d="M497.905,167.265C489.19,167.808 486.557,179.378 494.178,183.636C528.573,203.495 549.752,240.171 549.752,279.886C549.752,319.601 528.568,356.277 494.178,376.136C483.432,381.788 492.667,397.765 502.928,391.277C542.713,368.308 567.252,325.824 567.252,279.887C567.252,233.95 542.709,191.465 502.928,168.497C501.417,167.591 499.663,167.161 497.905,167.267L497.905,167.265ZM476.03,205.171C467.315,205.714 464.682,217.284 472.303,221.542C493.162,233.585 506.002,255.804 506.002,279.886C506.002,303.972 493.158,326.187 472.303,338.23C462.217,344.07 470.944,359.21 481.053,353.406C507.303,338.25 523.502,310.195 523.502,279.886C523.502,249.577 507.299,221.519 481.053,206.366C479.538,205.471 477.788,205.054 476.03,205.171L476.03,205.171ZM455.49,240.781C446.775,241.324 444.142,252.894 451.763,257.152C459.896,261.847 464.888,270.488 464.888,279.882C464.888,289.273 459.896,297.917 451.763,302.612C441.646,308.444 450.396,323.624 460.513,317.788C474.036,309.979 482.388,295.499 482.388,279.882C482.388,264.265 474.037,249.784 460.513,241.976C458.998,241.081 457.248,240.663 455.49,240.781L455.49,240.781Z" style="fill-rule:nonzero;"/>
    </g>
</svg>
